# xmcd
#
# Track frame offsets:
#	150
#	14619
#	30076
#	44756
#	59254
#	77759
#	93520
#	111556
#	123839
#	138296
#
# Disc length: 2093 seconds
#
# Revision: 1
# Processed by: cddbd v1.5.1PL2 Copyright (c) Steve Scherf et al.
# Submitted via: audiograbber 1.83.01
#
DISCID=81082b0a
DTITLE=Duane Steele - Ghost Town
DYEAR=2006
DGENRE=Country
TTITLE0=Comin' Back Around
TTITLE1=Ghost Town
TTITLE2=Blue Collar Man
TTITLE3=Real Close
TTITLE4=Bustin Out
TTITLE5=Livin' Backwards
TTITLE6=Two People In A Room
TTITLE7=What D'ya Say
TTITLE8=The Man Who Never Wakes Up
TTITLE9=Ode To Dad
EXTD=
EXTT0=
EXTT1=
EXTT2=
EXTT3=
EXTT4=
EXTT5=
EXTT6=
EXTT7=
EXTT8=
EXTT9=
PLAYORDER=
